
        <svg xmlns="http://www.w3.org/2000/svg" xmlns:xlink="http://www.w3.org/1999/xlink" version="1.1" width="3162.1013319777676" height="959.0273920081333" viewBox="0 -72.94559938999534 3162.1013319777676 959.0273920081333">
			
			<g transform="scale(8.10506659888837) translate(10, 10)">
				<defs id="SvgjsDefs5625"><linearGradient id="SvgjsLinearGradient5632"><stop id="SvgjsStop5633" stop-color="#8f5e25" offset="0"/><stop id="SvgjsStop5634" stop-color="#fbf4a1" offset="0.5"/><stop id="SvgjsStop5635" stop-color="#8f5e25" offset="1"/></linearGradient></defs><g id="SvgjsG5626" featureKey="symbolFeature-0" transform="matrix(0.9226352149888682,0,0,0.9226352149888682,-10.713639665945262,-10.462873220878267)" fill="#fff"><path xmlns="http://www.w3.org/2000/svg" d="M50.7,26.7c0.7,0.3,1.4,0.7,2.1,1c0.6,0.3,1.3,0.6,1.9,0.9c0.6,0.3,1.3,0.6,1.9,0.9c0.6,0.3,1.2,0.6,1.9,0.8  c0.6,0.2,1.3,0.5,1.9,0.8c0.6,0.3,1.3,0.5,1.9,0.7c0.6,0.2,1.3,0.5,1.9,0.6c2.5,0.8,5.1,1.2,7.7,1.1c1.3,0,2.6-0.3,3.8-0.7  c1.3-0.4,2.4-1.1,3.5-2c-0.5,1.3-1.6,2.5-2.8,3.3c-1.2,0.8-2.7,1.5-4.2,1.8c-3,0.6-6.1,0.3-8.9-0.6c-1.4-0.5-2.8-1-4.1-1.6l-1.9-1  l-0.9-0.5c-0.3-0.2-0.6-0.4-0.9-0.6c-1.2-0.8-2.4-1.6-3.4-2.6c-0.7-0.6-1.3-1.2-2-1.9c-2.9,1.6-5.6,3.4-8.4,5.3l-2.2,1.5  c-0.8,0.5-1.4,1-2.3,1.5c-1.7,1-3.7,1.5-5.7,1.5c-2,0-3.8-0.6-5.5-1.5c-1.6-0.9-3.1-2-4.2-3.4c3.1,1.8,6.5,2.9,9.6,2.6  c1.6-0.2,3-0.7,4.3-1.6c0.6-0.4,1.4-1,2.1-1.5l2.2-1.5c2.9-2,6-3.9,9.5-5.2c1.7-0.7,3.5-1.1,5.4-1.3c1.8-0.1,3.7,0,5.4,0.8  C56.8,24,53.7,25.3,50.7,26.7z M22.3,41.7c-1.4-1.1-2.6-2.4-3.7-3.8c-1-1.4-1.9-2.9-2.4-4.4c-0.5-1.5-0.8-3.1-0.6-4.6  c0.2-1.5,0.7-3,1.6-4.3c0.9-1.4,2.1-2.6,3.5-3.7c2.7-2.3,6-4.1,9.3-6.1c-3.9,0.3-7.6,1.5-11.1,3.5c-1.7,1-3.4,2.3-4.7,4  c-1.3,1.7-2.3,3.8-2.5,6.1c-0.3,2.3,0.2,4.5,1,6.5c0.9,2,2.1,3.7,3.6,5.1c1.5,1.4,3.2,2.6,5,3.4c0.9,0.4,1.9,0.7,2.9,0.9  c1,0.2,2,0.2,3,0C25.2,43.9,23.7,42.9,22.3,41.7z M88.4,29.7c0.1,2.1-0.3,4.2-1.2,6.1c-0.9,1.9-2.2,3.5-3.8,4.7  c-1.6,1.2-3.3,2.2-5.1,2.9c-1.5,0.5-3.1,1-4.7,1c0,0.2,0,0.4,0.1,0.6l0.1,1.1c0,0.5,0,1-0.2,1.5c-0.2,0.6-0.7,1.2-1.2,1.6  c-0.2,2-0.5,4.1-0.7,6.1c-0.2,1.8-0.5,3.6-0.9,5.4c-0.3,1.8-0.7,3.6-1.1,5.4c-0.2,0.9-0.5,1.8-0.7,2.7c-0.3,0.9-0.6,1.8-1.1,2.8  c-0.1,0.2-0.4,0.6-0.5,0.8l-0.5,0.6c-0.4,0.4-0.7,0.7-1.1,1.1c-0.7,0.7-1.5,1.3-2.3,1.8c-1.6,1.1-3.3,2.1-5.1,2.8  c-1.8,0.8-3.7,1.4-5.7,1.7c-0.5,0.1-1,0.1-1.5,0.1c-0.3,0-0.5,0-0.8,0c-0.3,0-0.6,0-0.9-0.1c-1.1-0.2-2-0.4-3-0.7  c-1.9-0.6-3.6-1.4-5.3-2.4c-1.7-1-3.2-2.1-4.7-3.5c-0.7-0.7-1.4-1.4-2-2.3c-0.6-0.9-1-1.8-1.4-2.7c-1.5-3.5-2.3-7.1-3.1-10.6  c-0.5-2.5-1-5-1.4-7.6c0,0-0.1,0-0.1,0c-0.5-0.2-0.8-0.5-1.1-0.9c-0.1-0.2-0.2-0.4-0.2-0.7c0-0.1,0-0.2,0-0.3c0-0.1,0-0.1,0-0.2  l0-0.5l0.2-2.1c0.3-2.8,0.5-5.7,1-8.5c0.4,2.8,0.7,5.7,1,8.5l0.2,2c1.1-0.5,2.3-1,3.5-1.4c0.5-0.2,0.9-0.3,1.4-0.5  C34.1,45,34,44.2,34,43.3c-0.1-1.3-0.1-2.6,0.2-3.9c0.4,1.3,0.6,2.6,0.7,3.8c0,0.8,0,1.6,0,2.4c2.1-0.7,4.2-1.4,6.4-1.9  c0-0.7-0.1-1.5-0.1-2.2c0-1.8,0.1-3.6,0.4-5.3C42,38,42,39.8,42,41.6c0,0.7,0,1.3-0.1,2c1.9-0.5,3.9-0.8,6-1  c-0.1-1.2-0.1-2.4-0.1-3.5c0-2.1,0.1-4.2,0.4-6.3c0.3,2.1,0.4,4.2,0.4,6.3c0,1.2,0,2.3-0.1,3.5c0.5,0,0.9-0.1,1.4-0.1  c1.3-0.1,2.5,0,3.8,0.1c0-0.9,0-1.8,0-2.6c0.1-2,0.2-4,0.7-6c0.3,2,0.3,4,0.2,6c0,0.9-0.1,1.8-0.2,2.7c1.5,0.2,3,0.4,4.4,0.7  c0.6,0.1,1.2,0.3,1.8,0.4c0-0.6-0.1-1.2-0.1-1.9c0-1.7,0.1-3.4,0.5-5c0.4,1.7,0.5,3.4,0.5,5c0,0.7,0,1.4-0.1,2.1  c1.8,0.5,3.6,1.1,5.4,1.8c-0.1-0.8-0.1-1.6-0.1-2.4c0-1.7,0.1-3.4,0.5-5.1c0.4,1.7,0.5,3.4,0.5,5.1c0,0.9,0,1.8-0.1,2.7  c0.5,0.2,1.1,0.4,1.6,0.7l0.5,0.2c0.1,0,0.2,0.1,0.2,0.1c0.1,0,0.3,0.1,0.5,0c0.3,0,0.7-0.2,0.9-0.6c0.1-0.2,0.2-0.3,0.2-0.6  l0.1-1.1c0.3-2.8,0.5-5.7,1-8.5c0.4,2.6,0.7,5.2,0.9,7.8c1.5-0.3,3-1,4.3-1.7c1.6-0.9,3.1-2,4.3-3.3c1.2-1.3,2.2-2.8,2.8-4.3  c0.6-1.6,0.7-3.3,0.5-5c-0.2-1.7-0.7-3.4-1.5-4.7c-0.8-1.4-1.9-2.6-3.3-3.4c-1.4-0.9-2.9-1.4-4.6-1.7c-0.8-0.2-1.7-0.3-2.5-0.3  c-0.8-0.1-1.8,0-2.5,0l-1.8,0.2L69,18c0-0.2-0.2-0.8-0.5-1.2c-0.2-0.5-0.5-0.9-0.8-1.4c-0.6-0.9-1.3-1.8-2-2.7  c-1.5-1.7-3.2-3.2-5.2-4.4c-1-0.6-2-1.1-3-1.6c-1-0.4-2.1-0.8-3.2-1.1c-2.2-0.6-4.5-0.6-6.8-0.4c-4.6,0.5-9.2,2-12.5,5.3  c-3.3,3.3-4.9,8.2-4.9,13.1c-1-4.8,0-10.4,3.3-14.5c1.7-2.1,3.8-3.7,6.2-4.9c2.4-1.1,4.9-1.9,7.5-2.4C52.3,1.1,58,2.1,62.5,5  c2.3,1.4,4.4,3.1,6.1,5.1c0.9,1,1.7,2.1,2.4,3.2c0.4,0.6,0.7,1.2,1,1.8c0.1,0.2,0.2,0.4,0.3,0.6c0.5,0,1,0,1.5,0.1  c1,0.1,2,0.2,3.1,0.5c2,0.5,4,1.3,5.8,2.5c1.8,1.2,3.3,2.9,4.2,4.9C87.8,25.6,88.3,27.6,88.4,29.7z M29.5,48.4L29.5,48.4  c0,0.1,0,0.2,0,0.1C29.5,48.5,29.5,48.5,29.5,48.4C29.5,48.5,29.5,48.5,29.5,48.4z M71.2,49.7c-0.5,0.2-1,0.2-1.6,0.1  c-0.3,0-0.6-0.1-0.8-0.2l-0.5-0.2c-0.7-0.2-1.3-0.4-2-0.6c-5.4-1.5-10.9-2.7-16.1-2.5c-5.4,0.3-10.9,1.6-16.3,3  c-1.4,0.4-2.7,0.8-4.1,1.1l-0.3,0.1c-0.1,0-0.1,0-0.2,0l2.5,7c0.6,1.7,1.2,3.4,1.9,5c0.7,1.7,1.3,3.3,2.1,4.8c0.4,0.8,0.8,1.4,1.3,2  c0.5,0.6,1.1,1.2,1.7,1.7c1.2,1.1,2.7,2,4.2,2.8c1.5,0.8,3.1,1.5,4.6,2c0.8,0.2,1.6,0.4,2.3,0.5c0.2,0,0.3,0,0.5,0  c0.1,0,0.4,0,0.5,0c0.4,0,0.8-0.1,1.2-0.1c3.2-0.4,6.4-1.9,9.2-3.6c0.7-0.5,1.4-0.9,2-1.4c0.3-0.2,0.6-0.5,0.9-0.8l0.4-0.4  c0.1-0.1,0.1-0.1,0.2-0.3c0.4-0.6,0.7-1.4,1-2.2c0.3-0.8,0.6-1.6,0.9-2.5C68.4,60.1,69.7,54.9,71.2,49.7z M73.5,78.1  c-0.5-0.5-1-1.1-1.6-1.6c-1.1-1-2.2-2.1-3.3-3c0.7,1.3,1.5,2.6,2.3,3.9c0.4,0.6,0.8,1.2,1.2,1.9c0.1,0.2,0.3,0.4,0.4,0.6  c-1.9,0.8-3.8,1.7-5.7,2.8c-2.2,1.2-4.4,2.6-6.4,4.1c-1,0.7-2,1.6-3,2.4c-0.9,0.9-1.9,1.7-2.7,2.7c-1.4,1.6-2.8,3.4-3.6,5.4  c-0.8-2-2.2-3.8-3.6-5.4c-0.9-1-1.8-1.8-2.7-2.7c-1-0.8-2-1.6-3-2.4c-2-1.5-4.2-2.9-6.4-4.1c-1.8-1-3.7-1.9-5.7-2.8  c0.1-0.2,0.3-0.4,0.4-0.6c0.4-0.6,0.8-1.2,1.2-1.9c0.8-1.3,1.6-2.5,2.3-3.9c-1.2,1-2.2,2-3.3,3c-0.5,0.5-1.1,1.1-1.6,1.6  c-0.5,0.5-1,1.1-1.5,1.6l-0.9,0.9l1.3,0.8l6.3,3.8c2.1,1.3,4.2,2.6,6.2,3.9c2,1.3,4.1,2.7,6,4.2c1.7,1.3,3.3,2.7,4.8,4.4  c-0.1,0.2-0.2,0.4-0.2,0.7c0.1-0.2,0.3-0.3,0.4-0.5c0.1,0.2,0.3,0.3,0.4,0.5c-0.1-0.2-0.1-0.4-0.2-0.7c1.4-1.7,3.1-3.1,4.8-4.4  c1.9-1.5,3.9-2.9,6-4.2c2-1.3,4.1-2.6,6.2-3.9l6.3-3.8l1.3-0.8L75,79.7C74.5,79.2,74,78.7,73.5,78.1z"/></g><g id="SvgjsG5627" featureKey="nameFeature-0" transform="matrix(0.8480416193938211,0,0,0.8480416193938211,89.13430859908469,8.36624830359369)" fill="#fff"><path d="M18 40.64 c-6.72 0 -15.8 -3.92 -15.8 -14.12 c0 -6.92 4.24 -15.16 15.44 -15.16 c4.64 0 8.64 1.44 8.16 2.84 l-0.52 1.56 c-1.44 4.28 -3 -1.2 -10.12 -1.2 c-5.72 0 -8.52 3.72 -8.52 9.48 c0 9 6.84 12.76 12.32 12.76 c0.72 0 4.36 -0.56 6.44 -1.88 c0.32 -0.2 1.16 0.72 0.92 1.08 c-1.72 2.52 -7.08 4.64 -8.32 4.64 z M68.453 38.64 c0.32 0.04 0.08 1.36 -0.24 1.36 l-10.96 0 c-0.32 0 -0.56 -1.32 -0.24 -1.36 c2.04 -0.28 3.32 -1.08 3.32 -3.6 l0 -6.88 c-0.2 -0.68 -1.04 -0.68 -1.8 -0.68 l-10.24 0 c-0.76 0 -1.6 0 -1.8 0.68 l0 6.88 c0 2.8 1.6 3.36 3.32 3.6 c0.32 0.04 0.08 1.36 -0.24 1.36 l-10.96 0 c-0.32 0 -0.56 -1.32 -0.24 -1.36 c2.04 -0.28 3.32 -1.08 3.32 -3.6 l0 -18.08 c0 -2.52 -1.28 -3.32 -3.32 -3.6 c-0.32 -0.04 -0.08 -1.36 0.24 -1.36 l10.96 0 c0.32 0 0.56 1.32 0.24 1.36 c-1.72 0.24 -3.32 0.8 -3.32 3.6 l0 7.32 c0.2 0.68 1.04 0.68 1.8 0.68 l10.24 0 c0.76 0 1.6 0 1.8 -0.68 l0 -7.32 c0 -2.52 -1.28 -3.32 -3.32 -3.6 c-0.32 -0.04 -0.08 -1.36 0.24 -1.36 l10.96 0 c0.32 0 0.56 1.32 0.24 1.36 c-1.72 0.24 -3.32 0.8 -3.32 3.6 l0 18.08 c0 2.8 1.6 3.36 3.32 3.6 z M79.86600000000001 40.08 c-0.4 0.04 -0.56 -1.36 -0.24 -1.44 c2.32 -0.6 4.12 -0.96 4.12 -3.92 l0 -17.76 c0 -2.56 -1.64 -3.24 -3.36 -3.68 c-0.32 -0.08 -0.12 -1.4 0.2 -1.36 c2.92 0.32 7.96 0.24 10.4 0.24 c3.64 0 6.28 -0.16 9.56 -0.24 c0.96 0 0.96 0.64 0.76 1.56 l-0.96 3.8 c-0.12 0.56 -1.12 0.56 -1.28 0 c-0.6 -1.96 -1.8 -3.08 -6.8 -3.08 c-2.8 0 -3.72 0.72 -3.72 2.8 l0 6.52 c0 1.04 0.52 1.24 1.32 1.24 l0.88 0 c3.24 0 6.04 -0.32 7.68 -1.8 c0.4 -0.36 1.28 -0.28 0.92 0.52 l-2.28 5.04 c-0.32 0.72 -0.92 0.64 -1.36 0.04 c-0.92 -1.28 -2.96 -1.8 -5.28 -1.8 l-0.56 0 c-0.8 0 -1.32 0.2 -1.32 1.24 l0 6.72 c0 2.28 0.96 3.12 4.28 3.12 c6.04 0 8.44 -2.76 9.4 -4.28 c0.28 -0.44 1.36 -0.24 1.36 0.44 c0 2.04 -1.72 6.08 -4.24 6.08 c-2.24 -0.12 -4.44 -0.24 -7.8 -0.24 c-3.68 0 -8.04 -0.12 -11.68 0.24 z M114.83900000000001 40.08 c-0.4 0.04 -0.56 -1.36 -0.24 -1.44 c2.32 -0.6 4.12 -0.96 4.12 -3.92 l0 -17.76 c0 -2.56 -1.64 -3.24 -3.36 -3.68 c-0.32 -0.08 -0.12 -1.4 0.2 -1.36 c2.92 0.32 7.96 0.24 10.4 0.24 c3.64 0 6.28 -0.16 9.56 -0.24 c0.96 0 0.96 0.64 0.76 1.56 l-0.96 3.8 c-0.12 0.56 -1.12 0.56 -1.28 0 c-0.6 -1.96 -1.8 -3.08 -6.8 -3.08 c-2.8 0 -3.72 0.72 -3.72 2.8 l0 6.92 c0 1.04 0.52 1.24 1.32 1.24 l0.88 0 c3.24 0 6.04 -0.32 7.68 -1.8 c0.4 -0.36 1.28 -0.28 0.92 0.52 l-2.28 5.04 c-0.32 0.72 -0.92 0.64 -1.36 0.04 c-0.92 -1.28 -2.96 -1.8 -5.28 -1.8 l-0.56 0 c-0.8 0 -1.32 0.2 -1.32 1.24 l0 6.32 c0 2.96 1.84 3.2 5.12 3.92 c0.36 0.08 0.16 1.48 -0.24 1.44 c-2.88 -0.2 -4.96 -0.24 -7.28 -0.24 s-4.4 0.04 -6.28 0.24 z M149.732 31.68 c-0.72 0.12 -0.96 -2.4 -0.24 -2.52 l11.28 -1.84 c0.72 -0.12 0.96 2.4 0.24 2.52 z M173.705 40.08 c-0.4 0.04 -0.56 -1.36 -0.24 -1.44 c2.32 -0.6 4.12 -0.96 4.12 -3.92 l0 -17.76 c0 -2.56 -1.64 -3.24 -3.36 -3.68 c-0.32 -0.08 -0.12 -1.4 0.2 -1.36 c2.92 0.32 7.96 0.24 10.4 0.24 c3.64 0 6.28 -0.16 9.56 -0.24 c0.96 0 0.96 0.64 0.76 1.56 l-0.96 3.8 c-0.12 0.56 -1.12 0.56 -1.28 0 c-0.6 -1.96 -1.8 -3.08 -6.8 -3.08 c-2.8 0 -3.72 0.72 -3.72 2.8 l0 6.92 c0 1.04 0.52 1.24 1.32 1.24 l0.88 0 c3.24 0 6.04 -0.32 7.68 -1.8 c0.4 -0.36 1.28 -0.28 0.92 0.52 l-2.28 5.04 c-0.32 0.72 -0.92 0.64 -1.36 0.04 c-0.92 -1.28 -2.96 -1.8 -5.28 -1.8 l-0.56 0 c-0.8 0 -1.32 0.2 -1.32 1.24 l0 6.32 c0 2.96 1.84 3.2 5.12 3.92 c0.36 0.08 0.16 1.48 -0.24 1.44 c-2.88 -0.2 -4.96 -0.24 -7.28 -0.24 s-4.4 0.04 -6.28 0.24 z M207.318 40 c-0.32 0 -0.56 -1.32 -0.24 -1.36 c2.04 -0.28 3.32 -1.08 3.32 -3.6 l0 -18.08 c0 -2.52 -1.28 -3.32 -3.32 -3.6 c-0.32 -0.04 -0.08 -1.36 0.24 -1.36 l10.96 0 c0.32 0 0.56 1.32 0.24 1.36 c-1.72 0.24 -3.32 0.8 -3.32 3.6 l0 18.08 c0 2.8 1.6 3.36 3.32 3.6 c0.32 0.04 0.08 1.36 -0.24 1.36 l-10.96 0 z M256.651 40.4 c-0.68 0 -1.04 -0.28 -1.48 -0.76 l-19.04 -19.92 l0 15.2 c0 2.72 1.6 3.16 3.88 3.72 c0.32 0.08 0.16 1.36 -0.24 1.36 l-9.48 0 c-0.32 0 -0.56 -1.24 -0.2 -1.36 c1.68 -0.56 3.28 -0.88 3.28 -3.72 l0 -15.52 c0 -2.84 -0.44 -4.2 -1.48 -5.6 c-0.36 -0.48 -0.72 -0.8 -0.72 -0.92 c0 -0.36 0.24 -0.88 0.8 -0.88 l2.96 0 c0.4 0 0.68 0.04 0.96 0.36 l18.64 19.72 l0 -15.04 c0 -2.84 -1.8 -3.16 -3.88 -3.68 c-0.32 -0.08 -0.16 -1.36 0.24 -1.36 l9.48 0 c0.32 0 0.52 1.28 0.2 1.36 c-1.76 0.52 -3.28 0.84 -3.28 3.68 l0 15.56 c0 2.64 0.08 5.56 0.48 7.04 c0.16 0.6 -0.48 0.76 -1.12 0.76 z M271.984 40.08 c-0.4 0.04 -0.56 -1.36 -0.24 -1.44 c2.32 -0.6 4.12 -0.96 4.12 -3.92 l0 -17.76 c0 -2.56 -1.64 -3.24 -3.36 -3.68 c-0.32 -0.08 -0.12 -1.4 0.2 -1.36 c1.64 0.2 3.32 0.24 5 0.24 c3.12 0 5.92 -0.24 7.96 -0.24 c9.68 0 14.92 5.76 14.92 13.48 c0 7.68 -5.24 14.68 -14.96 14.68 c-1.92 0 -4.4 -0.24 -7.36 -0.24 c-2.48 0 -4.44 0.04 -6.28 0.24 z M286.024 37.96 c6.52 0 9.76 -3.52 9.76 -10.28 c0 -7.64 -4.16 -13.64 -11.36 -13.64 c-2.84 0 -3.76 0.88 -3.76 2.92 l0 17.76 c0 2.16 1.48 3.24 5.36 3.24 z M321.077 40.64 c-3.28 0 -8.28 -1.44 -7.8 -3.2 l0.4 -1.48 c1.12 -4.2 2.44 1.96 9.04 1.96 c3.36 0 5 -1.64 5 -3.96 c0 -1.88 -1.2 -2.68 -4.04 -4.44 l-3.88 -2.44 c-4.32 -2.72 -6.08 -4.4 -6.08 -7.4 c0 -4.92 4.8 -8.32 9.76 -8.32 c3.04 0 6.92 1.32 6.48 2.68 l-0.48 1.52 c-1.24 3.88 -2.24 -1.48 -7.72 -1.48 c-2.84 0 -4.32 1.44 -4.32 3.56 c0 1.8 1.08 2.8 3.76 4.44 l4.2 2.6 c4.24 2.64 5.96 4.44 5.96 7.32 c0 5 -4.92 8.64 -10.28 8.64 z"/></g><g id="SvgjsG5628" featureKey="sloganFeature-0" transform="matrix(0.5652741417599408,0,0,0.5652741417599408,90.90627803290616,53.78171838948121)" fill="#fff"><path d="M12.412 5.888999999999999 l-4.6387 7.3535 l0 6.7578 l-2.9395 0 l0 -6.6895 l-4.668 -7.4219 l3.2422 0 l2.8809 4.8047 l2.8906 -4.8047 l3.2324 0 z M32.4512 20.19531 c-4.1504 0 -7.2168 -2.832 -7.2168 -7.2559 c0 -4.4336 3.0664 -7.2461 7.2168 -7.2461 c4.1406 0 7.207 2.8125 7.207 7.2461 c0 4.4238 -3.0664 7.2559 -7.207 7.2559 z M32.4512 17.5098 c2.4316 0 4.2969 -1.709 4.2969 -4.5703 c0 -2.8516 -1.8652 -4.5508 -4.2969 -4.5508 s-4.2969 1.6992 -4.2969 4.5508 c0 2.8613 1.8652 4.5703 4.2969 4.5703 z M59.384784375 20.19531 c-3.0957 0 -5.5176 -1.582 -5.5176 -5.1367 l0 -9.1699 l2.9297 0 l0 8.7695 c0 2.1484 1.1426 2.9492 2.5879 2.9492 c1.4551 0 2.6074 -0.81055 2.6074 -2.9492 l0 -8.7695 l2.9297 0 l0 9.1699 c0 3.5547 -2.4316 5.1367 -5.5371 5.1367 z M87.53901875 20 l-3.6719 -6.2109 l-0.84961 0 l0 6.2109 l-2.9297 0 l0 -14.111 l5.1172 0 c3.1934 0 4.541 1.8848 4.541 4.2188 c0 1.8945 -1.0742 3.125 -2.9883 3.5352 l4.248 6.3574 l-3.4668 0 z M83.01761875 8.32 l0 3.3691 l1.7285 0 c1.5625 0 2.1973 -0.66406 2.1973 -1.6797 c0 -1.0059 -0.63477 -1.6895 -2.1973 -1.6895 l-1.7285 0 z M129.41401875 20 l-3.6719 -6.2109 l-0.84961 0 l0 6.2109 l-2.9297 0 l0 -14.111 l5.1172 0 c3.1934 0 4.541 1.8848 4.541 4.2188 c0 1.8945 -1.0742 3.125 -2.9883 3.5352 l4.248 6.3574 l-3.4668 0 z M124.89261875 8.32 l0 3.3691 l1.7285 0 c1.5625 0 2.1973 -0.66406 2.1973 -1.6797 c0 -1.0059 -0.63477 -1.6895 -2.1973 -1.6895 l-1.7285 0 z M155.019765625 8.467 l-5.2344 0 l0 3.2031 l4.6387 0 l0 2.5488 l-4.6387 0 l0 3.1934 l5.2344 0 l0 2.5879 l-8.1836 0 l0 -14.111 l8.1836 0 l0 2.5781 z M176.093778125 20.19531 c-4.1504 0 -7.2168 -2.8223 -7.2168 -7.2559 s3.0664 -7.2461 7.2168 -7.2461 c3.1445 0 5.6641 1.6113 6.6699 4.2871 l-2.7344 0.99609 c-0.625 -1.6406 -2.1191 -2.5879 -3.9355 -2.5879 c-2.4316 0 -4.2969 1.6992 -4.2969 4.5508 s1.8652 4.5605 4.2969 4.5605 c1.8164 0 3.3105 -0.95703 3.9355 -2.5977 l2.7344 0.99609 c-1.0059 2.6758 -3.5254 4.2969 -6.6699 4.2969 z M196.972684375 20 l0 -14.111 l2.9297 0 l0 14.111 l-2.9297 0 z M221.220690625 5.888999999999999 c2.7637 0 4.4824 2.0508 4.4824 4.5605 c0 2.5684 -1.7188 4.4922 -4.4824 4.4922 l-2.9395 0 l0 5.0586 l-2.9297 0 l0 -14.111 l5.8691 0 z M220.732390625 12.4902 c1.4648 0 2.1484 -0.81055 2.1484 -2.0801 c0 -1.2207 -0.68359 -2.0703 -2.1484 -2.0703 l-2.4512 0 l0 4.1504 l2.4512 0 z M248.15453125 8.467 l-5.2344 0 l0 3.2031 l4.6387 0 l0 2.5488 l-4.6387 0 l0 3.1934 l5.2344 0 l0 2.5879 l-8.1836 0 l0 -14.111 l8.1836 0 l0 2.5781 z M288.877296875 5.888999999999999 l2.9297 0 l0 14.111 l-2.9297 0 l0 -5.8008 l-5.9668 0 l0 5.8008 l-2.9297 0 l0 -14.111 l2.9297 0 l0 5.7617 l5.9668 0 l0 -5.7617 z M316.709453125 20 l-1.0254 -2.9102 l-5.9277 0 l-1.0254 2.9102 l-2.998 0 l5.1953 -14.111 l3.584 0 l5.1953 14.111 l-2.998 0 z M310.615253125 14.6387 l4.209 0 l-2.0996 -5.9863 z M342.607640625 5.888999999999999 l3.1152 0 l-5.2148 14.111 l-3.2227 0 l-5.1855 -14.111 l3.1055 0 l3.7012 10.693 z M367.832265625 8.467 l-5.2344 0 l0 3.2031 l4.6387 0 l0 2.5488 l-4.6387 0 l0 3.1934 l5.2344 0 l0 2.5879 l-8.1836 0 l0 -14.111 l8.1836 0 l0 2.5781 z M392.295078125 5.888999999999999 l2.9199 0 l0 14.111 l-3.3887 0 l-6.25 -10.088 l0 10.088 l-2.9199 0 l0 -14.111 l3.3496 0 l6.2891 10.029 l0 -10.029 z"/></g>
			</g>
		</svg>
	